<?xml version="1.0" standalone="no"?>
<!DOCTYPE svg PUBLIC "-//W3C//DTD SVG 20010904//EN"
 "http://www.w3.org/TR/2001/REC-SVG-20010904/DTD/svg10.dtd">
<svg version="1.0" xmlns="http://www.w3.org/2000/svg"
 width="2000.000000pt" height="1500.000000pt" viewBox="0 0 2000.000000 1500.000000"
 preserveAspectRatio="xMidYMid meet">

<g transform="translate(0.000000,1500.000000) scale(0.100000,-0.100000)"
fill="#000000" stroke="none">
<path d="M13975 11899 c-832 -45 -1586 -291 -2119 -693 -628 -472 -935 -1153
-865 -1916 83 -919 709 -1630 1894 -2155 295 -131 544 -226 1000 -385 393
-137 473 -167 670 -252 550 -238 766 -441 840 -794 25 -117 23 -325 -4 -428
-60 -226 -197 -386 -426 -496 -174 -84 -335 -119 -596 -127 -358 -12 -696 40
-933 143 -397 172 -610 527 -633 1057 l-6 137 -1040 0 -1040 0 7 -142 c14
-284 75 -600 161 -834 89 -240 244 -515 403 -714 396 -493 1057 -879 1832
-1069 988 -242 2219 -161 2995 197 815 377 1272 986 1355 1806 16 152 7 524
-15 661 -109 682 -483 1235 -1130 1671 -166 112 -280 177 -501 288 -338 168
-612 277 -1185 471 -469 159 -686 244 -914 359 -233 118 -337 188 -460 311
-106 106 -151 173 -193 283 -24 61 -26 80 -26 212 0 131 2 153 27 225 107 321
422 543 867 611 128 20 422 22 535 5 267 -42 468 -132 631 -284 190 -178 292
-408 311 -704 l6 -103 1029 0 1028 0 0 98 c0 272 -72 619 -185 887 -475 1134
-1718 1761 -3320 1674z"/>
<path d="M2520 7500 l0 -4290 1030 0 1030 0 0 1790 0 1790 1525 0 1525 0 0
-1790 0 -1790 1028 2 1027 3 0 4285 0 4285 -1027 3 -1028 2 -2 -1702 -3 -1703
-1520 0 -1520 0 -3 1703 -2 1702 -1030 0 -1030 0 0 -4290z"/>
</g>
</svg>
